<?xml version="1.0" encoding="UTF-8" standalone="no"?>
<svg
   xmlns:dc="http://purl.org/dc/elements/1.1/"
   xmlns:cc="http://creativecommons.org/ns#"
   xmlns:rdf="http://www.w3.org/1999/02/22-rdf-syntax-ns#"
   xmlns:svg="http://www.w3.org/2000/svg"
   xmlns="http://www.w3.org/2000/svg"
   xmlns:sodipodi="http://sodipodi.sourceforge.net/DTD/sodipodi-0.dtd"
   xmlns:inkscape="http://www.inkscape.org/namespaces/inkscape"
   version="1.0"
   width="256.000000pt"
   height="256.000000pt"
   viewBox="0 0 256.000000 256.000000"
   preserveAspectRatio="xMidYMid meet"
   id="svg10"
   sodipodi:docname="icon.svg"
   inkscape:version="0.92.4 (5da689c313, 2019-01-14)">
  <metadata
     id="metadata16">
    <rdf:RDF>
      <cc:Work
         rdf:about="">
        <dc:format>image/svg+xml</dc:format>
        <dc:type
           rdf:resource="http://purl.org/dc/dcmitype/StillImage" />
      </cc:Work>
    </rdf:RDF>
  </metadata>
  <defs
     id="defs14" />
  <sodipodi:namedview
     pagecolor="#ffffff"
     bordercolor="#666666"
     borderopacity="1"
     objecttolerance="10"
     gridtolerance="10"
     guidetolerance="10"
     inkscape:pageopacity="0"
     inkscape:pageshadow="2"
     inkscape:window-width="1920"
     inkscape:window-height="1001"
     id="namedview12"
     showgrid="false"
     inkscape:zoom="0.69140625"
     inkscape:cx="-67.254237"
     inkscape:cy="459.9322"
     inkscape:window-x="-9"
     inkscape:window-y="-9"
     inkscape:window-maximized="1"
     inkscape:current-layer="svg10" />
  <g
     transform="translate(0.000000,256.000000) scale(0.100000,-0.100000)"
     fill="#000000"
     stroke="none"
     id="g8"
     style="fill:#ff5800;fill-opacity:1">
    <path
       d="M560 1729 c-68 -13 -146 -57 -196 -111 -77 -83 -114 -192 -114 -341 0 -269 158 -446 400 -447 121 0 221 44 288 128 42 54 79 139 66 152 -8 7 -144 50 -158 50 -3 0 -6 -8 -6 -17 0 -10 -13 -40 -28 -68 -64 -118 -230 -133 -322 -29 -42 48 -60 120 -60 239 0 160 38 247 124 286 48 22 133 25 179 5 36 -14 97 -79 97 -101 0 -25 18 -26 100 -9 91 20 90 17 42 108 -27 49 -82 101 -137 129 -64 32 -184 44 -275 26z"
       id="path2"
       style="fill:#ff5800;fill-opacity:1" />
    <path
       d="M1520 1285 l0 -445 85 0 85 0 0 184 c0 182 0 184 23 189 33 8 111 -7 141 -27 29 -19 83 -90 183 -243 l68 -103 103 0 104 0 -23 38 c-99 161 -174 265 -218 303 -28 24 -51 47 -51 50 0 4 20 12 45 19 63 18 120 61 147 112 32 60 32 175 1 234 -56 106 -107 121 -440 128 l-253 5 0 -444z m485 280 c38 -18 55 -51 55 -103 0 -88 -50 -112 -235 -112 l-135 0 0 115 0 115 141 0 c107 0 149 -4 174 -15z"
       id="path4"
       style="fill:#ff5800;fill-opacity:1" />
    <path
       d="M1170 925 l0 -85 85 0 85 0 0 85 0 85 -85 0 -85 0 0 -85z"
       id="path6"
       style="fill:#ff5800;fill-opacity:1" />
  </g>
</svg>
